<svg xmlns="http://www.w3.org/2000/svg" xmlns:xlink="http://www.w3.org/1999/xlink" width="128" height="128" viewBox="0 0 128 128"><defs><radialGradient id="a" cx="-221.831" cy="139.65" r="90.313" gradientTransform="translate(317.9751 -167.306) scale(1.3333)" gradientUnits="userSpaceOnUse"><stop offset="0" stop-color="#fff" stop-opacity=".1"/><stop offset="1" stop-color="#fff" stop-opacity="0"/></radialGradient></defs><title>Artboard 1</title><path fill="#fbbc05" d="M82.0067,95.2867l-12,20.86H38.58a7.8242,7.8242,0,0,1-6.7867-3.9333l-25.42-44.32a7.8277,7.8277,0,0,1,0-7.78l9.6733-16.86L27.9867,64l18,31.2867Z"/><path fill="#ea4335" d="M121.6267,67.8933,96.2067,112.22a7.8162,7.8162,0,0,1-6.7867,3.9333H70l12-20.86L100.0133,64,82,32.7133h23.9067l15.7133,27.4A7.7788,7.7788,0,0,1,121.6267,67.8933Z"/><path fill="#4285f4" d="M105.9133,32.7133H45.9867L27.9867,64l-11.94-20.7533,15.7467-27.46A7.8162,7.8162,0,0,1,38.58,11.8533H89.4267a7.8323,7.8323,0,0,1,6.7867,3.9333Z"/><path fill="#e0e0e0" d="M82.0067,32.7133l18,31.2867L82,95.2867H45.9933L27.9867,64l18-31.2867h36.02"/><circle cx="64" cy="64" r="15.647" fill="#fff"/><path fill="#fff" d="M31.7933,16.4333A7.8162,7.8162,0,0,1,38.58,12.5H89.4267a7.8323,7.8323,0,0,1,6.7867,3.9333l9.3333,16.28h.3733L96.2133,15.7867a7.8162,7.8162,0,0,0-6.7867-3.9333H38.58a7.8242,7.8242,0,0,0-6.7867,3.9333l-15.7467,27.46.1867.3267Z" opacity=".2" style="isolation:isolate"/><polyline fill="#1a237e" fill-opacity=".2" points="27.987 64 45.987 32.713 105.913 32.713 105.54 32.06 45.987 32.06 27.987 63.347"/><path fill="#fff" d="M6.3733,60.76l9.6733-16.8667,11.94,20.7533,18,31.2867h35.64l.38-.6533h-36.02l-18-31.28-11.94-20.7533-9.6733,16.86a7.8743,7.8743,0,0,0-1.02,4.22A7.8531,7.8531,0,0,1,6.3733,60.76Z" opacity=".2" style="isolation:isolate"/><g opacity=".2"><path fill="#bf360c" d="M70.38,115.4933H38.58a7.8242,7.8242,0,0,1-6.7867-3.9333L6.3733,67.24a7.8531,7.8531,0,0,1-1.02-3.5667,7.77,7.77,0,0,0,1.02,4.22l25.42,44.3267a7.8162,7.8162,0,0,0,6.7867,3.9333H70.0067Z"/></g><g opacity=".2"><polygon fill="#3e2723" points="100.38 64 82.38 32.713 82.007 32.713 100.013 64 100.38 64"/><path fill="#3e2723" d="M121.6267,67.24l-25.42,44.3267A7.8162,7.8162,0,0,1,89.42,115.5H70.38l-.38.6533H89.42a7.8323,7.8323,0,0,0,6.7867-3.9333l25.42-44.3267a7.8287,7.8287,0,0,0,1.02-4.22A7.8531,7.8531,0,0,1,121.6267,67.24Z"/></g><g opacity=".2"><path fill="#fff" d="M105.9133,33.36l15.7133,27.4a7.8531,7.8531,0,0,1,1.02,3.5667,7.77,7.77,0,0,0-1.02-4.22l-15.7133-27.4H82.0067l.38.6533"/><polygon fill="#fff" points="82.007 95.94 100.38 64 100.013 64 82.007 95.287 70.007 116.147 70.38 116.147 82.007 95.94"/></g><path fill="url(#a)" d="M121.6267,60.1067l-15.7133-27.4L96.2067,15.78A7.8162,7.8162,0,0,0,89.42,11.8467H38.58A7.8242,7.8242,0,0,0,31.7933,15.78L6.3733,60.1067a7.8277,7.8277,0,0,0,0,7.78l25.42,44.3267a7.8162,7.8162,0,0,0,6.7867,3.9333H89.4267a7.8323,7.8323,0,0,0,6.7867-3.9333l25.42-44.3267A7.8114,7.8114,0,0,0,121.6267,60.1067Z"/><rect width="128" height="128" fill="none"/></svg>