<svg xmlns="http://www.w3.org/2000/svg" xmlns:xlink="http://www.w3.org/1999/xlink" width="109" height="92" version="1.1" viewBox="0 0 109 92"><title>upfrontcost</title><desc>Created with Sketch.</desc><defs><path id="path-1" d="M7.23738229,50.5470863 C5.58753924,47.6795998 5.58753924,44.146703 7.23738229,41.2792165 L28.3217355,4.63393493 C29.9715785,1.76644842 33.0206678,0 36.3203539,0 L78.4890603,0 C81.7887464,0 84.8378356,1.76644842 86.4876786,4.63393493 L107.572032,41.2792165 C109.221875,44.146703 109.221875,47.6795998 107.572032,50.5470863 L86.4876786,87.1923678 C84.8378356,90.0598543 81.7887464,91.8263028 78.4890603,91.8263028 L36.3203539,91.8263028 C33.0206678,91.8263834 29.9716589,90.0599349 28.3217355,87.1924484 L7.23738229,50.5470863 Z"/></defs><g id="Page-1" fill="none" fill-rule="evenodd" stroke="none" stroke-width="1"><g id="Pricing_landing" transform="translate(-455.000000, -770.000000)"><g id="upfrontcost" transform="translate(455.000000, 770.000000)"><g id="affordable"><path id="Shape" fill="#445965" d="M28.363115,87.3540839 L7.23967612,50.6407894 C5.58677463,47.7679872 5.58677463,44.2285412 7.23967612,41.355739 L28.363115,4.64252522 C30.0160165,1.76972302 33.0707581,0 36.3765611,0 L78.6234389,0 C81.9292419,0 84.9839835,1.76972302 86.636885,4.64252522 L107.760324,41.355739 C109.413225,44.2285412 109.413225,47.7679872 107.760324,50.6407894 L86.636885,87.3540032 C84.9839835,90.2268054 81.9292419,91.9965284 78.6234389,91.9965284 L36.3765611,91.9965284 C33.0707581,91.9966091 30.016097,90.2268861 28.363115,87.3540839 L28.363115,87.3540839 Z"/><mask id="mask-2" fill="#fff"><use xlink:href="#path-1"/></mask><rect id="Rectangle-19" width="96.678" height="150.488" x="49" y="32" fill="#FFF" mask="url(#mask-2)"/><text id="0" fill="#8FA3AD" font-family="Roboto-Light, Roboto" font-size="48" font-weight="300" mask="url(#mask-2)"><tspan x="71" y="87">0</tspan></text><text id="$" fill="#8FA3AD" font-family="Roboto-Regular, Roboto" font-size="18" font-weight="normal" mask="url(#mask-2)"><tspan x="61" y="68">$</tspan></text><rect id="Rectangle-4" width="31.938" height="32" x="65.884" y="-10.4" fill="#36464E" mask="url(#mask-2)" opacity=".4" rx="4"/><rect id="Rectangle-4" width="31.938" height="32" x="8.589" y="76" fill="#36464E" mask="url(#mask-2)" opacity=".4" rx="4"/><rect id="Rectangle-52" width="100.728" height="56.867" x="-41.232" y="12.633" fill="#36464E" mask="url(#mask-2)" opacity=".213" rx="7.2"/><rect id="Rectangle-52" width="57.224" height="56.867" x="0" y="9.6" fill="#6BF" rx="7.2"/><g id="cloud-symbol-copy-2" fill="#FFF" transform="translate(13.000000, 24.000000)"><path id="Fill-1" d="M19.8088052,14.2352619 C19.8088052,12.4433785 18.3276461,10.9908817 16.5003844,10.9908817 C14.6730426,10.9908817 13.1918034,12.4433785 13.1918034,14.2352619 C13.1918034,16.0270669 14.6730426,17.4795636 16.5003844,17.4795636 C18.3276461,17.4795636 19.8088052,16.0270669 19.8088052,14.2352619"/><path id="Fill-2" d="M28.6427496,6.40175826 C28.6289625,6.37833123 25.7127293,1.43398934 25.7127293,1.43398934 C25.1758746,0.522296002 24.202148,0.0121646702 23.2005315,0.011339048 L9.80095065,0.011339048 C8.72724133,0.011339048 7.7899295,0.583185641 7.28843716,1.43337013 L3.520351,7.83493524 L6.86882541,13.5228531 L11.4755036,5.69863773 L27.3865455,5.69946336 C27.8868801,5.69977297 28.3735329,5.95447742 28.6420129,6.40970487 L21.9491686,6.40970487 L26.5503741,14.2245288 L21.5185062,22.7700285 L18.5928009,27.7373846 C18.3422126,28.1621672 17.8740829,28.4480389 17.3377544,28.4484517 L20.6810718,22.7700285 L11.4752931,22.7700285 L6.84146171,14.8987526 L6.45005562,14.2340235 L3.52024576,9.2562439 C3.27155186,8.8330093 3.25260776,8.29532283 3.51677267,7.8410242 L0.588436246,12.8124052 C0.0517920738,13.7242018 0.0881015932,14.8061797 0.588120511,15.657293 L7.28791093,27.0364313 C7.82476559,27.9481246 8.79859743,28.4581528 9.80010869,28.4591848 L17.3377544,28.4581528 C17.3926923,28.4581528 17.4464725,28.4533022 17.499937,28.4474197 L23.199479,28.4484517 C24.2731884,28.4484517 25.2107107,27.8763987 25.712203,27.0263174 L32.4119935,15.6471791 C32.9487429,14.7354858 32.9124334,13.6534047 32.4123092,12.8022913 L28.6427496,6.40175826 Z"/></g></g></g></g></g></svg>